<svg xmlns="http://www.w3.org/2000/svg" viewBox="2550.985 675.864 46.481 30.988">
  <defs>
    <style>
      .cls-1 {
        fill: #fff;
      }
    </style>
  </defs>
  <path id="innogy_picto_van" class="cls-1" d="M30.909,26.568h-6.1a2.353,2.353,0,0,1-2.343-2.31V19.673a1.162,1.162,0,0,1,2.324,0v4.568h6.12a1.163,1.163,0,0,1,0,2.327Zm15.209,12.87a2.335,2.335,0,0,1-1.971,1.074h-3.1a5.528,5.528,0,0,1-10.914.005H20.324a1.184,1.184,0,0,1,0-2.324h9.927a5.528,5.528,0,0,1,10.681-.005h3.194l-5.241-11.62H35.923l-4.4-10.075-29.2,0V38.188H4.066A5.536,5.536,0,1,1,3.95,40.52H2.344A2.346,2.346,0,0,1,0,38.177V16.516a2.346,2.346,0,0,1,2.344-2.343H31.513a2.349,2.349,0,0,1,2.135,1.375l3.8,8.7h1.421A2.349,2.349,0,0,1,41,25.619L46.26,37.2A2.329,2.329,0,0,1,46.119,39.437Zm-39.924.187a3.212,3.212,0,1,0,3.212-3.211,3.212,3.212,0,0,0-3.212,3.211Zm26.186,0a3.212,3.212,0,1,0,3.211-3.211,3.212,3.212,0,0,0-3.211,3.211Z" transform="translate(2550.985 661.691)"/>
</svg>
