<svg xmlns="http://www.w3.org/2000/svg" viewBox="2557.785 411.448 31.364 31.367">
  <defs>
    <style>
      .cls-1 {
        fill: #393939;
      }
    </style>
  </defs>
  <g id="innogy_picto_smiley" transform="translate(2557.785 411.448)">
    <path id="innogy_picto_smiley_head" class="cls-1" d="M15.689,0a15.683,15.683,0,1,0,8.656,28.764.784.784,0,0,0-.867-1.308,14.122,14.122,0,1,1,3.275-3.008.784.784,0,1,0,1.229.975,15.519,15.519,0,0,0,3.39-9.74A15.7,15.7,0,0,0,15.689,0Z" transform="translate(-0.009 0)"/>
    <path id="innogy_picto_smiley_eye_1" class="cls-1" d="M27.072,24.4h0a1.568,1.568,0,0,0,0-3.137h0a1.568,1.568,0,1,0,0,3.137Z" transform="translate(-16.101 -13.418)"/>
    <path id="innogy_picto_smiley_eye_2" class="cls-1" d="M52.588,24.4a1.568,1.568,0,1,0,0-3.137h0a1.568,1.568,0,1,0,0,3.137Z" transform="translate(-32.203 -13.418)"/>
    <path id="innogy_picto_smiley_mouth" class="cls-1" d="M23.213,46.827a.779.779,0,0,0-.479.992,7.75,7.75,0,0,0,7.257,5.227h.022a7.75,7.75,0,0,0,7.26-5.176.779.779,0,0,0-1.467-.524,6.19,6.19,0,0,1-5.793,4.142H30a6.19,6.19,0,0,1-5.79-4.183.778.778,0,0,0-.992-.479Z" transform="translate(-14.324 -29.527)"/>
  </g>
</svg>
