<svg xmlns="http://www.w3.org/2000/svg" viewBox="2796.026 419.878 67.251 26.822">
  <defs>
    <style>
      .cls-1 {
        fill: #fff;
      }
    </style>
  </defs>
  <g id="Group_53" data-name="Group 53" transform="translate(2796.026 419.878)">
    <g id="innogy_picto_smiley" transform="translate(0 2.511)">
      <path id="innogy_picto_smiley_head" class="cls-1" d="M11.009,0a11,11,0,1,0,6.072,20.18.55.55,0,0,0-.608-.917,9.907,9.907,0,1,1,2.3-2.111.55.55,0,0,0,.862.684A10.887,10.887,0,0,0,22.012,11,11.015,11.015,0,0,0,11.009,0Z" transform="translate(-0.009 0)"/>
      <path id="innogy_picto_smiley_eye_1" class="cls-1" d="M26.6,23.46h0a1.1,1.1,0,1,0,0-2.2h0a1.1,1.1,0,1,0,0,2.2Z" transform="translate(-18.908 -15.758)"/>
      <path id="innogy_picto_smiley_eye_2" class="cls-1" d="M52.119,23.46a1.1,1.1,0,1,0,0-2.2h0a1.1,1.1,0,1,0,0,2.2Z" transform="translate(-37.818 -15.758)"/>
      <path id="innogy_picto_smiley_mouth" class="cls-1" d="M23.057,46.814a.546.546,0,0,0-.336.7,5.437,5.437,0,0,0,5.091,3.667h.015a5.437,5.437,0,0,0,5.093-3.631.547.547,0,1,0-1.03-.367,4.342,4.342,0,0,1-4.064,2.906h-.012a4.343,4.343,0,0,1-4.062-2.934.546.546,0,0,0-.7-.336Z" transform="translate(-16.821 -34.678)"/>
    </g>
    <path id="innogy_picto_control-panel" class="cls-1" d="M4.79,19.284V.958a.958.958,0,0,0-1.916,0V19.284a3.827,3.827,0,0,0,0,7.412V37.359a.958.958,0,0,0,1.916,0V26.7a3.827,3.827,0,0,0,0-7.412Zm-.958,5.622A1.916,1.916,0,1,1,5.748,22.99a1.916,1.916,0,0,1-1.916,1.916ZM14.369,7.789V.958a.958.958,0,1,0-1.916,0V7.789a3.827,3.827,0,0,0,0,7.412V37.359a.958.958,0,0,0,1.916,0V15.2a3.827,3.827,0,0,0,0-7.412Zm-.958,5.622h0a1.916,1.916,0,1,1,1.916-1.916,1.916,1.916,0,0,1-1.916,1.916ZM26.822,26.822a3.83,3.83,0,0,0-2.874-3.706V.958a.958.958,0,0,0-1.916,0V23.116a3.827,3.827,0,0,0,0,7.412v6.831a.958.958,0,0,0,1.916,0V30.528a3.83,3.83,0,0,0,2.874-3.706Zm-3.831,1.916h0a1.916,1.916,0,1,1,1.916-1.916,1.916,1.916,0,0,1-1.916,1.916Z" transform="translate(67.251 0) rotate(90)"/>
  </g>
</svg>
