<svg xmlns="http://www.w3.org/2000/svg" viewBox="3323.67 675.864 34.193 31.342">
  <defs>
    <style>
      .cls-1 {
        fill: #393939;
      }
    </style>
  </defs>
  <path id="innogy_picto_man_in_the_middle" class="cls-1" d="M28.369,4.155a5.683,5.683,0,0,0-3.485,10.178L21.26,20.694a.854.854,0,1,0,1.483.846l3.631-6.373a5.687,5.687,0,1,0,2-11.011ZM28.3,13.828a3.983,3.983,0,1,1,3.983-3.983A3.983,3.983,0,0,1,28.3,13.828ZM17.006,24.07a5.651,5.651,0,0,0-2.025.379L9.155,14.288a5.722,5.722,0,1,0-1.479.853L13.5,25.29a5.681,5.681,0,1,0,3.51-1.221ZM1.627,9.845A3.983,3.983,0,1,1,5.61,13.828,3.983,3.983,0,0,1,1.627,9.845Zm15.379,23.9a3.983,3.983,0,1,1,3.983-3.983A3.983,3.983,0,0,1,17.006,33.742Zm1.707-4.026a1.707,1.707,0,1,1-1.707-1.707,1.707,1.707,0,0,1,1.707,1.707Z" transform="translate(3323.804 671.773)"/>
</svg>
