<svg xmlns="http://www.w3.org/2000/svg" viewBox="3037.491 679.646 95.276 31.303">
  <defs>
    <style>
      .cls-1 {
        fill: #fff;
      }
    </style>
  </defs>
  <g id="Group_56" data-name="Group 56" transform="translate(3037.491 679.646)">
    <path id="innogy_picto_man_in_the_middle" class="cls-1" d="M28.334,4.155a5.676,5.676,0,0,0-3.48,10.165l-3.62,6.353a.852.852,0,1,0,1.481.845l3.627-6.365a5.68,5.68,0,1,0,1.993-11Zm-.073,9.661a3.978,3.978,0,1,1,3.978-3.978A3.978,3.978,0,0,1,28.261,13.816ZM16.985,24.045a5.644,5.644,0,0,0-2.023.379L9.144,14.275a5.715,5.715,0,1,0-1.477.852l5.812,10.137a5.674,5.674,0,1,0,3.506-1.219ZM1.625,9.838A3.978,3.978,0,1,1,5.6,13.816,3.978,3.978,0,0,1,1.625,9.838Zm15.36,23.868a3.978,3.978,0,1,1,3.978-3.978,3.978,3.978,0,0,1-3.978,3.978Z" transform="translate(31.872 -4.091)"/>
    <path id="innogy_picto_man_in_the_middle-2" data-name="innogy_picto_man_in_the_middle" class="cls-1" d="M28.468.065a5.676,5.676,0,0,0-3.48,10.165l-3.62,6.353a.852.852,0,1,0,1.481.845l3.627-6.365a5.68,5.68,0,1,0,1.993-11Zm-.073,9.661a3.978,3.978,0,1,1,3.978-3.978A3.978,3.978,0,0,1,28.394,9.725ZM17.118,19.954a5.644,5.644,0,0,0-2.023.379L9.277,10.184a5.715,5.715,0,1,0-1.477.852l5.812,10.137a5.674,5.674,0,1,0,3.506-1.219ZM1.758,5.747A3.978,3.978,0,1,1,5.736,9.725,3.978,3.978,0,0,1,1.758,5.747Zm15.36,23.868A3.978,3.978,0,1,1,21.1,25.637a3.978,3.978,0,0,1-3.978,3.978Z" transform="translate(95.276 31.303) rotate(180)"/>
    <path id="innogy_picto_man_in_the_middle-3" data-name="innogy_picto_man_in_the_middle" class="cls-1" d="M28.468.065a5.676,5.676,0,0,0-3.48,10.165l-3.62,6.353a.852.852,0,1,0,1.481.845l3.627-6.365a5.68,5.68,0,1,0,1.993-11Zm-.073,9.661a3.978,3.978,0,1,1,3.978-3.978A3.978,3.978,0,0,1,28.394,9.725ZM17.118,19.954a5.644,5.644,0,0,0-2.023.379L9.277,10.184a5.715,5.715,0,1,0-1.477.852l5.812,10.137a5.674,5.674,0,1,0,3.506-1.219ZM1.758,5.747A3.978,3.978,0,1,1,5.736,9.725,3.978,3.978,0,0,1,1.758,5.747Zm15.36,23.868A3.978,3.978,0,1,1,21.1,25.637a3.978,3.978,0,0,1-3.978,3.978Z" transform="translate(34.151 31.303) rotate(180)"/>
  </g>
</svg>
