<svg xmlns="http://www.w3.org/2000/svg" viewBox="2802.287 666.026 53.824 44.923">
  <defs>
    <style>
      .cls-1 {
        fill: #393939;
      }
    </style>
  </defs>
  <g id="Group_55" data-name="Group 55" transform="translate(2802.286 666.026)">
    <path id="innogy_picto_van" class="cls-1" d="M17,20.989H13.644a1.294,1.294,0,0,1-1.289-1.271V17.2a.639.639,0,0,1,1.278,0V19.71H17a.64.64,0,0,1,0,1.279Zm8.364,7.078a1.284,1.284,0,0,1-1.084.591h-1.7a3.04,3.04,0,0,1-6,0h-5.4a.651.651,0,0,1,0-1.278h5.459a3.04,3.04,0,0,1,5.874,0h1.756l-2.882-6.39H19.756l-2.42-5.541-16.058,0V27.38h.958a3.045,3.045,0,1,1-.064,1.283H1.289A1.29,1.29,0,0,1,0,27.374V15.461a1.29,1.29,0,0,1,1.289-1.289H17.331a1.292,1.292,0,0,1,1.174.756l2.088,4.782h.782a1.292,1.292,0,0,1,1.174.756l2.892,6.369a1.281,1.281,0,0,1-.078,1.231Zm-21.956.1A1.766,1.766,0,1,0,5.173,26.4,1.766,1.766,0,0,0,3.407,28.17Zm14.4,0A1.766,1.766,0,1,0,19.574,26.4a1.766,1.766,0,0,0-1.766,1.766Z" transform="translate(10.454 12.811)"/>
    <path id="innogy_picto_graph" class="cls-1" d="M52.478,49.263H2.691V29.6L16.6,15.7l9.364,9.365a1.346,1.346,0,0,0,1.9,0l5.329-5.328L43.84,30.382H41.713a1.35,1.35,0,1,0,0,2.7H47.1a1.344,1.344,0,0,0,1.054-.514,1.358,1.358,0,0,0,.29-.857V26.358a1.344,1.344,0,1,0-2.688,0V28.49L34.143,16.88a1.345,1.345,0,0,0-1.9,0l-5.329,5.328-9.364-9.365a1.346,1.346,0,0,0-1.9,0L2.691,25.8V8.377A1.346,1.346,0,1,0,0,8.377V49.263a2.694,2.694,0,0,0,2.691,2.691H52.478a1.346,1.346,0,1,0,0-2.691Z" transform="translate(0 -7.031)"/>
  </g>
</svg>
